# Blender 3.3.0
# www.blender.org
mtllib low poly roads.mtl
o Plane.008
v -3.700000 0.000000 12.124523
v 3.700000 0.000000 12.124523
v -3.700000 0.000000 -12.124523
v 3.700000 0.000000 -12.124523
vn -0.0000 1.0000 -0.0000
vt 0.000428 0.999856
vt 0.000428 0.002179
vt 0.999291 0.999856
vt 0.999291 0.002179
s 0
usemtl Road_1
f 1/1/1 2/2/1 4/4/1 3/3/1
o Plane.002
v 3.698299 0.088079 -2.497240
v 3.806528 0.112031 -2.497240
v 3.806528 0.120000 2.500000
v 3.806528 0.120000 -2.500000
v 3.820964 0.120000 2.500000
v 3.820965 0.120000 -2.500000
v 3.698299 0.000000 -2.497240
v 3.725602 0.112031 -2.497240
v 4.691833 0.120000 -2.500000
v 4.691833 0.120000 2.500000
v 5.568004 0.120000 2.500000
v 5.568004 0.120000 -2.500000
v 5.562702 0.120000 2.500000
v 5.562702 0.120000 -2.500000
v 5.568004 0.000000 -2.500000
v 5.568004 0.000000 2.500000
v 3.691833 0.000000 2.497240
v 3.691833 0.000000 -2.497240
v 3.806528 0.120000 -2.497240
v 3.806528 0.120000 2.497240
v 3.691833 0.088079 2.497240
v 3.691833 0.088079 -2.497240
v 3.725602 0.120000 2.497240
v 3.725602 0.120000 -2.497240
v 3.698299 0.088079 -2.500000
v 3.806528 0.112031 -2.500000
v 3.698299 0.000000 -2.500000
v 3.725602 0.112031 -2.500000
v 3.806528 0.112031 2.497240
v 3.725602 0.112031 2.497240
v 3.698299 0.000000 2.497240
v 3.698299 0.088079 2.497240
v 3.806528 0.112031 2.500000
v 3.725602 0.112031 2.500000
v 3.698299 0.000000 2.500000
v 3.698299 0.088079 2.500000
vn -0.9285 -0.0000 -0.3714
vn -0.9094 0.2526 -0.3304
vn -0.7498 0.2137 -0.6262
vn -0.3204 0.7016 -0.6365
vn -0.6176 0.7467 -0.2470
vn -0.8696 0.3505 -0.3478
vn -0.2712 0.6372 -0.7214
vn -0.6176 0.7467 0.2470
vn -0.9275 0.3738 -0.0000
vn -0.0000 1.0000 -0.0000
vn 0.9275 0.3738 -0.0000
vn 1.0000 -0.0000 -0.0000
vn -0.9285 -0.0000 0.3714
vn -0.9094 0.2526 0.3304
vn -0.3204 0.7016 0.6365
vn -0.9617 0.2741 -0.0000
vn -1.0000 -0.0000 -0.0000
vn -0.3917 0.9201 -0.0000
vn -0.8696 0.3505 0.3478
vn -0.2712 0.6372 0.7214
vn -0.7498 0.2137 0.6262
vt 0.448905 2.558538
vt -0.168437 0.186149
vt 0.568822 2.609342
vt 1.171265 0.186149
vt -0.171265 0.186149
vt 1.171265 0.191102
vt 1.114333 1.191525
vt -0.171265 0.191102
vt 1.114333 -0.151005
vt 0.363306 2.592508
vt 0.490798 2.573627
vt 0.500000 -0.151004
vt 0.500000 1.191525
vt 1.171265 0.186149
vt 0.500002 1.191525
vt -0.171265 0.186149
vt 0.499998 -0.151004
vt 1.171265 0.191102
vt 1.114333 1.191525
vt -0.171265 0.191102
vt 1.114333 -0.151005
vt 0.462499 -0.151004
vt 0.462501 1.191525
vt 0.358319 -1.577836
vt 0.359914 2.574541
vt -0.168437 0.186149
vt 0.569470 2.602804
vt 1.168437 0.186149
vt 0.569470 -1.602056
vt 0.437620 -1.549810
vt 0.443200 2.549135
vt 0.489616 -1.568020
vt 0.492073 2.567351
vt 0.449364 2.569524
vt -0.171265 0.186149
vt 0.567932 2.618373
vt 0.364882 2.600822
vt 0.489844 2.583192
vt 1.168437 0.186149
vt 0.568762 -1.609548
vt 0.488316 -1.574604
vt 0.360508 -1.589710
vt 0.443784 -1.559667
vt 1.171265 0.186149
vt 0.567928 -1.618373
vt 0.487460 -1.583932
vt 0.362133 -1.598965
vt 0.444204 -1.570786
s 1
usemtl pavement_1
f 23/30/6 24/32/9 7/8/10 9/10/11 10/12/11 8/9/10
f 18/24/11 17/22/11 15/18/12 16/20/12
f 14/17/11 13/16/11 10/13/11 9/11/11
f 15/19/12 20/27/13 19/26/13 16/21/12
f 23/30/6 8/9/10 30/39/10 6/6/7
f 7/8/10 24/32/9 33/43/20 37/48/10
f 14/17/11 17/23/11 18/25/11 13/16/11
usemtl pavement_edge
f 22/29/2 26/35/3 5/5/4 11/14/2
f 28/37/5 23/31/6 6/7/7 12/15/8
f 21/28/14 25/34/15 26/35/3 22/29/2
f 25/34/15 27/36/16 28/37/5 26/35/3
f 23/31/6 28/37/5 27/36/16 24/33/9
f 12/15/8 5/5/4 26/35/3 28/37/5
f 11/14/2 5/5/4 29/38/17 31/41/18
f 12/15/8 6/7/7 30/40/10 32/42/19
f 5/5/4 12/15/8 32/42/19 29/38/17
f 24/33/9 27/36/16 34/45/21 33/44/20
f 25/34/15 21/28/14 35/46/14 36/47/22
f 25/34/15 36/47/22 34/45/21 27/36/16
f 34/45/21 36/47/22 40/52/17 38/50/19
f 36/47/22 35/46/14 39/51/18 40/52/17
f 33/44/20 34/45/21 38/50/19 37/49/10
o Plane.004
v 3.698299 0.088079 -7.497240
v 3.806528 0.112031 -7.497240
v 3.806528 0.120000 -2.500000
v 3.806528 0.120000 -7.500000
v 3.820964 0.120000 -2.500000
v 3.820965 0.120000 -7.500000
v 3.698299 0.000000 -7.497240
v 3.725602 0.112031 -7.497240
v 4.691833 0.120000 -7.500000
v 4.691833 0.120000 -2.500000
v 5.568004 0.120000 -2.500000
v 5.568004 0.120000 -7.500000
v 5.562702 0.120000 -2.500000
v 5.562702 0.120000 -7.500000
v 5.568004 0.000000 -7.500000
v 5.568004 0.000000 -2.500000
v 3.691833 0.000000 -2.502760
v 3.691833 0.000000 -7.497240
v 3.806528 0.120000 -7.497240
v 3.806528 0.120000 -2.502760
v 3.691833 0.088079 -2.502760
v 3.691833 0.088079 -7.497240
v 3.725602 0.120000 -2.502760
v 3.725602 0.120000 -7.497240
v 3.698299 0.088079 -7.500000
v 3.806528 0.112031 -7.500000
v 3.698299 0.000000 -7.500000
v 3.725602 0.112031 -7.500000
v 3.806528 0.112031 -2.502760
v 3.725602 0.112031 -2.502760
v 3.698299 0.000000 -2.502760
v 3.698299 0.088079 -2.502760
v 3.806528 0.112031 -2.500000
v 3.725602 0.112031 -2.500000
v 3.698299 0.000000 -2.500000
v 3.698299 0.088079 -2.500000
vn -0.9285 -0.0000 -0.3714
vn -0.9094 0.2526 -0.3304
vn -0.7498 0.2137 -0.6262
vn -0.3204 0.7016 -0.6365
vn -0.6176 0.7467 -0.2470
vn -0.8696 0.3505 -0.3478
vn -0.2712 0.6372 -0.7214
vn -0.6176 0.7467 0.2470
vn -0.9275 0.3738 -0.0000
vn -0.0000 1.0000 -0.0000
vn 0.9275 0.3738 -0.0000
vn 1.0000 -0.0000 -0.0000
vn -0.9285 -0.0000 0.3714
vn -0.9094 0.2526 0.3304
vn -0.3204 0.7016 0.6365
vn -0.9617 0.2741 -0.0000
vn -1.0000 -0.0000 -0.0000
vn -0.3917 0.9201 -0.0000
vn -0.8696 0.3505 0.3478
vn -0.2712 0.6372 0.7214
vn -0.7498 0.2137 0.6262
vt 0.448905 2.558538
vt -0.168437 0.186149
vt 0.568822 2.609342
vt 1.171265 0.186149
vt -0.171265 0.186149
vt 1.171265 0.191102
vt 1.114333 1.191525
vt -0.171265 0.191102
vt 1.114333 -0.151005
vt 0.363306 2.592508
vt 0.490798 2.573627
vt 0.500000 -0.151004
vt 0.500000 1.191525
vt 1.171265 0.186149
vt 0.500002 1.191525
vt -0.171265 0.186149
vt 0.499998 -0.151004
vt 1.171265 0.191102
vt 1.114333 1.191525
vt -0.171265 0.191102
vt 1.114333 -0.151005
vt 0.462499 -0.151004
vt 0.462501 1.191525
vt 0.358319 -1.577836
vt 0.359914 2.574541
vt -0.168437 0.186149
vt 0.569470 2.602804
vt 1.168437 0.186149
vt 0.569470 -1.602056
vt 0.437620 -1.549810
vt 0.443200 2.549135
vt 0.489616 -1.568020
vt 0.492073 2.567351
vt 0.449364 2.569524
vt -0.171265 0.186149
vt 0.567932 2.618373
vt 0.364882 2.600822
vt 0.489844 2.583192
vt 1.168437 0.186149
vt 0.568762 -1.609548
vt 0.488316 -1.574604
vt 0.360508 -1.589710
vt 0.443784 -1.559667
vt 1.171265 0.186149
vt 0.567928 -1.618373
vt 0.487460 -1.583932
vt 0.362133 -1.598965
vt 0.444204 -1.570786
s 1
usemtl pavement_1
f 59/78/27 60/80/30 43/56/31 45/58/32 46/60/32 44/57/31
f 54/72/32 53/70/32 51/66/33 52/68/33
f 50/65/32 49/64/32 46/61/32 45/59/32
f 51/67/33 56/75/34 55/74/34 52/69/33
f 59/78/27 44/57/31 66/87/31 42/54/28
f 43/56/31 60/80/30 69/91/41 73/96/31
f 50/65/32 53/71/32 54/73/32 49/64/32
usemtl pavement_edge
f 58/77/23 62/83/24 41/53/25 47/62/23
f 64/85/26 59/79/27 42/55/28 48/63/29
f 57/76/35 61/82/36 62/83/24 58/77/23
f 61/82/36 63/84/37 64/85/26 62/83/24
f 59/79/27 64/85/26 63/84/37 60/81/30
f 48/63/29 41/53/25 62/83/24 64/85/26
f 47/62/23 41/53/25 65/86/38 67/89/39
f 48/63/29 42/55/28 66/88/31 68/90/40
f 41/53/25 48/63/29 68/90/40 65/86/38
f 60/81/30 63/84/37 70/93/42 69/92/41
f 61/82/36 57/76/35 71/94/35 72/95/43
f 61/82/36 72/95/43 70/93/42 63/84/37
f 70/93/42 72/95/43 76/100/38 74/98/40
f 72/95/43 71/94/35 75/99/39 76/100/38
f 69/92/41 70/93/42 74/98/40 73/97/31
o Plane.005
v 3.698299 0.088079 2.502760
v 3.806528 0.112031 2.502760
v 3.806528 0.120000 7.500000
v 3.806528 0.120000 2.500000
v 3.820964 0.120000 7.500000
v 3.820965 0.120000 2.500000
v 3.698299 0.000000 2.502760
v 3.725602 0.112031 2.502760
v 4.691833 0.120000 2.500000
v 4.691833 0.120000 7.500000
v 5.568004 0.120000 7.500000
v 5.568004 0.120000 2.500000
v 5.562702 0.120000 7.500000
v 5.562702 0.120000 2.500000
v 5.568004 0.000000 2.500000
v 5.568004 0.000000 7.500000
v 3.691833 0.000000 7.497240
v 3.691833 0.000000 2.502760
v 3.806528 0.120000 2.502760
v 3.806528 0.120000 7.497240
v 3.691833 0.088079 7.497240
v 3.691833 0.088079 2.502760
v 3.725602 0.120000 7.497240
v 3.725602 0.120000 2.502760
v 3.698299 0.088079 2.500000
v 3.806528 0.112031 2.500000
v 3.698299 0.000000 2.500000
v 3.725602 0.112031 2.500000
v 3.806528 0.112031 7.497240
v 3.725602 0.112031 7.497240
v 3.698299 0.000000 7.497240
v 3.698299 0.088079 7.497240
v 3.806528 0.112031 7.500000
v 3.725602 0.112031 7.500000
v 3.698299 0.000000 7.500000
v 3.698299 0.088079 7.500000
vn -0.9285 -0.0000 -0.3714
vn -0.9094 0.2526 -0.3304
vn -0.7498 0.2137 -0.6262
vn -0.3204 0.7016 -0.6365
vn -0.6176 0.7467 -0.2470
vn -0.8696 0.3505 -0.3478
vn -0.2712 0.6372 -0.7214
vn -0.6176 0.7467 0.2470
vn -0.9275 0.3738 -0.0000
vn -0.0000 1.0000 -0.0000
vn 0.9275 0.3738 -0.0000
vn 1.0000 -0.0000 -0.0000
vn -0.9285 -0.0000 0.3714
vn -0.9094 0.2526 0.3304
vn -0.3204 0.7016 0.6365
vn -0.9617 0.2741 -0.0000
vn -1.0000 -0.0000 -0.0000
vn -0.3917 0.9201 -0.0000
vn -0.8696 0.3505 0.3478
vn -0.2712 0.6372 0.7214
vn -0.7498 0.2137 0.6262
vt 0.448905 2.558538
vt -0.168437 0.186149
vt 0.568822 2.609342
vt 1.171265 0.186149
vt -0.171265 0.186149
vt 1.171265 0.191102
vt 1.114333 1.191525
vt -0.171265 0.191102
vt 1.114333 -0.151005
vt 0.363306 2.592508
vt 0.490798 2.573627
vt 0.500000 -0.151004
vt 0.500000 1.191525
vt 1.171265 0.186149
vt 0.500002 1.191525
vt -0.171265 0.186149
vt 0.499998 -0.151004
vt 1.171265 0.191102
vt 1.114333 1.191525
vt -0.171265 0.191102
vt 1.114333 -0.151005
vt 0.462499 -0.151004
vt 0.462501 1.191525
vt 0.358319 -1.577836
vt 0.359914 2.574541
vt -0.168437 0.186149
vt 0.569470 2.602804
vt 1.168437 0.186149
vt 0.569470 -1.602056
vt 0.437620 -1.549810
vt 0.443200 2.549135
vt 0.489616 -1.568020
vt 0.492073 2.567351
vt 0.449364 2.569524
vt -0.171265 0.186149
vt 0.567932 2.618373
vt 0.364882 2.600822
vt 0.489844 2.583192
vt 1.168437 0.186149
vt 0.568762 -1.609548
vt 0.488316 -1.574604
vt 0.360508 -1.589710
vt 0.443784 -1.559667
vt 1.171265 0.186149
vt 0.567928 -1.618373
vt 0.487460 -1.583932
vt 0.362133 -1.598965
vt 0.444204 -1.570786
s 1
usemtl pavement_1
f 95/126/48 96/128/51 79/104/52 81/106/53 82/108/53 80/105/52
f 90/120/53 89/118/53 87/114/54 88/116/54
f 86/113/53 85/112/53 82/109/53 81/107/53
f 87/115/54 92/123/55 91/122/55 88/117/54
f 95/126/48 80/105/52 102/135/52 78/102/49
f 79/104/52 96/128/51 105/139/62 109/144/52
f 86/113/53 89/119/53 90/121/53 85/112/53
usemtl pavement_edge
f 94/125/44 98/131/45 77/101/46 83/110/44
f 100/133/47 95/127/48 78/103/49 84/111/50
f 93/124/56 97/130/57 98/131/45 94/125/44
f 97/130/57 99/132/58 100/133/47 98/131/45
f 95/127/48 100/133/47 99/132/58 96/129/51
f 84/111/50 77/101/46 98/131/45 100/133/47
f 83/110/44 77/101/46 101/134/59 103/137/60
f 84/111/50 78/103/49 102/136/52 104/138/61
f 77/101/46 84/111/50 104/138/61 101/134/59
f 96/129/51 99/132/58 106/141/63 105/140/62
f 97/130/57 93/124/56 107/142/56 108/143/64
f 97/130/57 108/143/64 106/141/63 99/132/58
f 106/141/63 108/143/64 112/148/59 110/146/61
f 108/143/64 107/142/56 111/147/60 112/148/59
f 105/140/62 106/141/63 110/146/61 109/145/52
o Plane.003
v -3.699889 0.088079 2.497240
v -3.808119 0.112031 2.497240
v -3.808120 0.120000 -2.500000
v -3.808119 0.120000 2.500000
v -3.822556 0.120000 -2.500000
v -3.822555 0.120000 2.500000
v -3.699889 0.000000 2.497240
v -3.727192 0.112031 2.497240
v -4.693423 0.120000 2.500000
v -4.693425 0.120000 -2.500000
v -5.569596 0.120000 -2.500000
v -5.569594 0.120000 2.500000
v -5.564294 0.120000 -2.500000
v -5.564292 0.120000 2.500000
v -5.569594 0.000000 2.500000
v -5.569596 0.000000 -2.500000
v -3.693425 0.000000 -2.497241
v -3.693423 0.000000 2.497240
v -3.808119 0.120000 2.497240
v -3.808120 0.120000 -2.497240
v -3.693425 0.088079 -2.497240
v -3.693423 0.088079 2.497240
v -3.727194 0.120000 -2.497240
v -3.727192 0.120000 2.497240
v -3.699889 0.088079 2.500000
v -3.808119 0.112031 2.500000
v -3.699889 0.000000 2.500000
v -3.727192 0.112031 2.500000
v -3.808120 0.112031 -2.497240
v -3.727194 0.112031 -2.497240
v -3.699891 0.000000 -2.497241
v -3.699891 0.088079 -2.497240
v -3.808120 0.112031 -2.500000
v -3.727194 0.112031 -2.500000
v -3.699891 0.000000 -2.500000
v -3.699891 0.088079 -2.500000
vn 0.9285 -0.0000 0.3714
vn 0.9094 0.2526 0.3304
vn 0.7498 0.2137 0.6262
vn 0.3204 0.7016 0.6365
vn 0.6176 0.7467 0.2470
vn 0.8696 0.3505 0.3478
vn 0.2712 0.6372 0.7214
vn 0.6176 0.7467 -0.2470
vn 0.9275 0.3738 -0.0000
vn -0.0000 1.0000 -0.0000
vn -0.9275 0.3738 -0.0000
vn -1.0000 -0.0000 -0.0000
vn 0.9285 -0.0000 -0.3714
vn 0.9094 0.2526 -0.3304
vn 0.3204 0.7016 -0.6365
vn 0.9617 0.2741 -0.0000
vn 1.0000 -0.0000 -0.0000
vn 0.3917 0.9201 -0.0000
vn 0.8696 0.3505 -0.3478
vn 0.2712 0.6372 -0.7214
vn 0.7498 0.2137 -0.6262
vt 0.448905 2.558538
vt -0.168437 0.186149
vt 0.568822 2.609342
vt 1.171265 0.186149
vt -0.171265 0.186149
vt 1.171265 0.191102
vt 1.114333 1.191525
vt -0.171265 0.191102
vt 1.114333 -0.151005
vt 0.363306 2.592508
vt 0.490798 2.573627
vt 0.500000 -0.151004
vt 0.500000 1.191525
vt 1.171265 0.186149
vt 0.500002 1.191525
vt -0.171265 0.186149
vt 0.499998 -0.151004
vt 1.171265 0.191102
vt 1.114333 1.191525
vt -0.171265 0.191102
vt 1.114333 -0.151005
vt 0.462499 -0.151004
vt 0.462501 1.191525
vt 0.358319 -1.577836
vt 0.359914 2.574541
vt -0.168437 0.186149
vt 0.569470 2.602804
vt 1.168437 0.186149
vt 0.569470 -1.602056
vt 0.437620 -1.549810
vt 0.443200 2.549135
vt 0.489616 -1.568020
vt 0.492073 2.567351
vt 0.449364 2.569524
vt -0.171265 0.186149
vt 0.567932 2.618373
vt 0.364882 2.600822
vt 0.489844 2.583192
vt 1.168437 0.186149
vt 0.568762 -1.609548
vt 0.488316 -1.574604
vt 0.360508 -1.589710
vt 0.443784 -1.559667
vt 1.171265 0.186149
vt 0.567928 -1.618373
vt 0.487460 -1.583932
vt 0.362133 -1.598965
vt 0.444204 -1.570786
s 1
usemtl pavement_1
f 131/174/69 132/176/72 115/152/73 117/154/74 118/156/74 116/153/73
f 126/168/74 125/166/74 123/162/75 124/164/75
f 122/161/74 121/160/74 118/157/74 117/155/74
f 123/163/75 128/171/76 127/170/76 124/165/75
f 131/174/69 116/153/73 138/183/73 114/150/70
f 115/152/73 132/176/72 141/187/83 145/192/73
f 122/161/74 125/167/74 126/169/74 121/160/74
usemtl pavement_edge
f 130/173/65 134/179/66 113/149/67 119/158/65
f 136/181/68 131/175/69 114/151/70 120/159/71
f 129/172/77 133/178/78 134/179/66 130/173/65
f 133/178/78 135/180/79 136/181/68 134/179/66
f 131/175/69 136/181/68 135/180/79 132/177/72
f 120/159/71 113/149/67 134/179/66 136/181/68
f 119/158/65 113/149/67 137/182/80 139/185/81
f 120/159/71 114/151/70 138/184/73 140/186/82
f 113/149/67 120/159/71 140/186/82 137/182/80
f 132/177/72 135/180/79 142/189/84 141/188/83
f 133/178/78 129/172/77 143/190/77 144/191/85
f 133/178/78 144/191/85 142/189/84 135/180/79
f 142/189/84 144/191/85 148/196/80 146/194/82
f 144/191/85 143/190/77 147/195/81 148/196/80
f 141/188/83 142/189/84 146/194/82 145/193/73
o Plane.006
v -3.699889 0.088079 7.497240
v -3.808118 0.112031 7.497240
v -3.808120 0.120000 2.500000
v -3.808118 0.120000 7.500000
v -3.822556 0.120000 2.500000
v -3.822554 0.120000 7.500000
v -3.699889 0.000000 7.497240
v -3.727192 0.112031 7.497240
v -4.693423 0.120000 7.500000
v -4.693425 0.120000 2.500000
v -5.569595 0.120000 2.500000
v -5.569594 0.120000 7.500000
v -5.564293 0.120000 2.500000
v -5.564291 0.120000 7.500000
v -5.569594 0.000000 7.500000
v -5.569595 0.000000 2.500000
v -3.693425 0.000000 2.502759
v -3.693423 0.000000 7.497240
v -3.808118 0.120000 7.497240
v -3.808120 0.120000 2.502760
v -3.693425 0.088079 2.502760
v -3.693423 0.088079 7.497240
v -3.727194 0.120000 2.502760
v -3.727192 0.120000 7.497240
v -3.699889 0.088079 7.500000
v -3.808118 0.112031 7.500000
v -3.699889 0.000000 7.500000
v -3.727192 0.112031 7.500000
v -3.808120 0.112031 2.502760
v -3.727194 0.112031 2.502760
v -3.699890 0.000000 2.502759
v -3.699890 0.088079 2.502760
v -3.808120 0.112031 2.500000
v -3.727194 0.112031 2.500000
v -3.699890 0.000000 2.500000
v -3.699890 0.088079 2.500000
vn 0.9285 -0.0000 0.3714
vn 0.9094 0.2526 0.3304
vn 0.7498 0.2137 0.6262
vn 0.3204 0.7016 0.6365
vn 0.6176 0.7467 0.2470
vn 0.8696 0.3505 0.3478
vn 0.2712 0.6372 0.7214
vn 0.6176 0.7467 -0.2470
vn 0.9275 0.3738 -0.0000
vn -0.0000 1.0000 -0.0000
vn -0.9275 0.3738 -0.0000
vn -1.0000 -0.0000 -0.0000
vn 0.9285 -0.0000 -0.3714
vn 0.9094 0.2526 -0.3304
vn 0.3204 0.7016 -0.6365
vn 0.9617 0.2741 -0.0000
vn 1.0000 -0.0000 -0.0000
vn 0.3917 0.9201 -0.0000
vn 0.8696 0.3505 -0.3478
vn 0.2712 0.6372 -0.7214
vn 0.7498 0.2137 -0.6262
vt 0.448905 2.558538
vt -0.168437 0.186149
vt 0.568822 2.609342
vt 1.171265 0.186149
vt -0.171265 0.186149
vt 1.171265 0.191102
vt 1.114333 1.191525
vt -0.171265 0.191102
vt 1.114333 -0.151005
vt 0.363306 2.592508
vt 0.490798 2.573627
vt 0.500000 -0.151004
vt 0.500000 1.191525
vt 1.171265 0.186149
vt 0.500002 1.191525
vt -0.171265 0.186149
vt 0.499998 -0.151004
vt 1.171265 0.191102
vt 1.114333 1.191525
vt -0.171265 0.191102
vt 1.114333 -0.151005
vt 0.462499 -0.151004
vt 0.462501 1.191525
vt 0.358319 -1.577836
vt 0.359914 2.574541
vt -0.168437 0.186149
vt 0.569470 2.602804
vt 1.168437 0.186149
vt 0.569470 -1.602056
vt 0.437620 -1.549810
vt 0.443200 2.549135
vt 0.489616 -1.568020
vt 0.492073 2.567351
vt 0.449364 2.569524
vt -0.171265 0.186149
vt 0.567932 2.618373
vt 0.364882 2.600822
vt 0.489844 2.583192
vt 1.168437 0.186149
vt 0.568762 -1.609548
vt 0.488316 -1.574604
vt 0.360508 -1.589710
vt 0.443784 -1.559667
vt 1.171265 0.186149
vt 0.567928 -1.618373
vt 0.487460 -1.583932
vt 0.362133 -1.598965
vt 0.444204 -1.570786
s 1
usemtl pavement_1
f 167/222/90 168/224/93 151/200/94 153/202/95 154/204/95 152/201/94
f 162/216/95 161/214/95 159/210/96 160/212/96
f 158/209/95 157/208/95 154/205/95 153/203/95
f 159/211/96 164/219/97 163/218/97 160/213/96
f 167/222/90 152/201/94 174/231/94 150/198/91
f 151/200/94 168/224/93 177/235/104 181/240/94
f 158/209/95 161/215/95 162/217/95 157/208/95
usemtl pavement_edge
f 166/221/86 170/227/87 149/197/88 155/206/86
f 172/229/89 167/223/90 150/199/91 156/207/92
f 165/220/98 169/226/99 170/227/87 166/221/86
f 169/226/99 171/228/100 172/229/89 170/227/87
f 167/223/90 172/229/89 171/228/100 168/225/93
f 156/207/92 149/197/88 170/227/87 172/229/89
f 155/206/86 149/197/88 173/230/101 175/233/102
f 156/207/92 150/199/91 174/232/94 176/234/103
f 149/197/88 156/207/92 176/234/103 173/230/101
f 168/225/93 171/228/100 178/237/105 177/236/104
f 169/226/99 165/220/98 179/238/98 180/239/106
f 169/226/99 180/239/106 178/237/105 171/228/100
f 178/237/105 180/239/106 184/244/101 182/242/103
f 180/239/106 179/238/98 183/243/102 184/244/101
f 177/236/104 178/237/105 182/242/103 181/241/94
o Plane.007
v -3.699890 0.088079 -2.502760
v -3.808119 0.112031 -2.502760
v -3.808121 0.120000 -7.500000
v -3.808119 0.120000 -2.500000
v -3.822557 0.120000 -7.500000
v -3.822555 0.120000 -2.500000
v -3.699890 0.000000 -2.502760
v -3.727193 0.112031 -2.502760
v -4.693424 0.120000 -2.500000
v -4.693426 0.120000 -7.500000
v -5.569596 0.120000 -7.500000
v -5.569595 0.120000 -2.500000
v -5.564294 0.120000 -7.500000
v -5.564292 0.120000 -2.500000
v -5.569595 0.000000 -2.500000
v -5.569596 0.000000 -7.500000
v -3.693426 0.000000 -7.497241
v -3.693424 0.000000 -2.502760
v -3.808119 0.120000 -2.502760
v -3.808121 0.120000 -7.497240
v -3.693426 0.088079 -7.497240
v -3.693424 0.088079 -2.502760
v -3.727195 0.120000 -7.497240
v -3.727193 0.120000 -2.502760
v -3.699890 0.088079 -2.500000
v -3.808119 0.112031 -2.500000
v -3.699890 0.000000 -2.500000
v -3.727193 0.112031 -2.500000
v -3.808121 0.112031 -7.497240
v -3.727195 0.112031 -7.497240
v -3.699891 0.000000 -7.497241
v -3.699891 0.088079 -7.497240
v -3.808121 0.112031 -7.500000
v -3.727195 0.112031 -7.500000
v -3.699891 0.000000 -7.500000
v -3.699891 0.088079 -7.500000
vn 0.9285 -0.0000 0.3714
vn 0.9094 0.2526 0.3304
vn 0.7498 0.2137 0.6262
vn 0.3204 0.7016 0.6365
vn 0.6176 0.7467 0.2470
vn 0.8696 0.3505 0.3478
vn 0.2712 0.6372 0.7214
vn 0.6176 0.7467 -0.2470
vn 0.9275 0.3738 -0.0000
vn -0.0000 1.0000 -0.0000
vn -0.9275 0.3738 -0.0000
vn -1.0000 -0.0000 -0.0000
vn 0.9285 -0.0000 -0.3714
vn 0.9094 0.2526 -0.3304
vn 0.3204 0.7016 -0.6365
vn 0.9617 0.2741 -0.0000
vn 1.0000 -0.0000 -0.0000
vn 0.3917 0.9201 -0.0000
vn 0.8696 0.3505 -0.3478
vn 0.2712 0.6372 -0.7214
vn 0.7498 0.2137 -0.6262
vt 0.448905 2.558538
vt -0.168437 0.186149
vt 0.568822 2.609342
vt 1.171265 0.186149
vt -0.171265 0.186149
vt 1.171265 0.191102
vt 1.114333 1.191525
vt -0.171265 0.191102
vt 1.114333 -0.151005
vt 0.363306 2.592508
vt 0.490798 2.573627
vt 0.500000 -0.151004
vt 0.500000 1.191525
vt 1.171265 0.186149
vt 0.500002 1.191525
vt -0.171265 0.186149
vt 0.499998 -0.151004
vt 1.171265 0.191102
vt 1.114333 1.191525
vt -0.171265 0.191102
vt 1.114333 -0.151005
vt 0.462499 -0.151004
vt 0.462501 1.191525
vt 0.358319 -1.577836
vt 0.359914 2.574541
vt -0.168437 0.186149
vt 0.569470 2.602804
vt 1.168437 0.186149
vt 0.569470 -1.602056
vt 0.437620 -1.549810
vt 0.443200 2.549135
vt 0.489616 -1.568020
vt 0.492073 2.567351
vt 0.449364 2.569524
vt -0.171265 0.186149
vt 0.567932 2.618373
vt 0.364882 2.600822
vt 0.489844 2.583192
vt 1.168437 0.186149
vt 0.568762 -1.609548
vt 0.488316 -1.574604
vt 0.360508 -1.589710
vt 0.443784 -1.559667
vt 1.171265 0.186149
vt 0.567928 -1.618373
vt 0.487460 -1.583932
vt 0.362133 -1.598965
vt 0.444204 -1.570786
s 1
usemtl pavement_1
f 203/270/111 204/272/114 187/248/115 189/250/116 190/252/116 188/249/115
f 198/264/116 197/262/116 195/258/117 196/260/117
f 194/257/116 193/256/116 190/253/116 189/251/116
f 195/259/117 200/267/118 199/266/118 196/261/117
f 203/270/111 188/249/115 210/279/115 186/246/112
f 187/248/115 204/272/114 213/283/125 217/288/115
f 194/257/116 197/263/116 198/265/116 193/256/116
usemtl pavement_edge
f 202/269/107 206/275/108 185/245/109 191/254/107
f 208/277/110 203/271/111 186/247/112 192/255/113
f 201/268/119 205/274/120 206/275/108 202/269/107
f 205/274/120 207/276/121 208/277/110 206/275/108
f 203/271/111 208/277/110 207/276/121 204/273/114
f 192/255/113 185/245/109 206/275/108 208/277/110
f 191/254/107 185/245/109 209/278/122 211/281/123
f 192/255/113 186/247/112 210/280/115 212/282/124
f 185/245/109 192/255/113 212/282/124 209/278/122
f 204/273/114 207/276/121 214/285/126 213/284/125
f 205/274/120 201/268/119 215/286/119 216/287/127
f 205/274/120 216/287/127 214/285/126 207/276/121
f 214/285/126 216/287/127 220/292/122 218/290/124
f 216/287/127 215/286/119 219/291/123 220/292/122
f 213/284/125 214/285/126 218/290/124 217/289/115
